<svg height='300px' width='300px'  fill="#000000" xmlns="http://www.w3.org/2000/svg" viewBox="0 0 64 64" x="0px" y="0px"><title>garage-car-park-house-building</title><g><path d="M6.03,7.757l-4,16A1,1,0,0,0,3,25H6V56a1,1,0,0,0,1,1H57a1,1,0,0,0,1-1V25h3a1,1,0,0,0,.97-1.243l-4-16A1,1,0,0,0,57,7H7A1,1,0,0,0,6.03,7.757ZM57.719,15H6.281l.5-2H57.219Zm.5,2,.5,2H5.281l.5-2ZM22,55V53h2v2Zm1-12H41a3,3,0,0,1,3,3v5H20V46A3,3,0,0,1,23,43Zm1.388-2,1.1-3.316A1,1,0,0,1,26.441,37H37.559a1,1,0,0,1,.949.684L39.612,41ZM38,53v2H26V53Zm2,2V53h2v2Zm4,0V53h1a1,1,0,0,0,1-1V46a4.994,4.994,0,0,0-4.254-4.925L40.4,37.051A3,3,0,0,0,37.559,35H26.441A3,3,0,0,0,23.6,37.051l-1.342,4.024A4.994,4.994,0,0,0,18,46v6a1,1,0,0,0,1,1h1v2H16V31H48V55Zm12,0H50V30a1,1,0,0,0-1-1H15a1,1,0,0,0-1,1V55H8V25H56ZM4.281,23l.5-2H59.219l.5,2ZM56.219,9l.5,2H7.281l.5-2Z"></path><path d="M24,50a3,3,0,1,0-3-3A3,3,0,0,0,24,50Zm0-4a1,1,0,1,1-1,1A1,1,0,0,1,24,46Z"></path><path d="M40,50a3,3,0,1,0-3-3A3,3,0,0,0,40,50Zm0-4a1,1,0,1,1-1,1A1,1,0,0,1,40,46Z"></path><rect x="52" y="33" width="2" height="4"></rect><rect x="10" y="33" width="2" height="4"></rect><rect x="29" y="47" width="6" height="2"></rect></g></svg>