<svg height='300px' width='300px'  fill="#000000" xmlns="http://www.w3.org/2000/svg" viewBox="0 0 88 88" x="0px" y="0px"><title>oven, kitchen, stove, food, appliance</title><g data-name="Oven/Stove/dome"><path d="M71,33H17a1,1,0,0,0-1,1V66a1,1,0,0,0,1,1H71a1,1,0,0,0,1-1V34A1,1,0,0,0,71,33ZM70,65H18V35H70ZM85,7H3A1,1,0,0,0,2,8V78a1,1,0,0,0,1,1H85a1,1,0,0,0,1-1V8A1,1,0,0,0,85,7ZM4,9H84V21H4ZM4,23h6V77H4Zm8,54V23H76V77Zm72,0H78V23h6ZM29,19H59a1,1,0,0,0,1-1V12a1,1,0,0,0-1-1H29a1,1,0,0,0-1,1v6A1,1,0,0,0,29,19Zm1-6H58v4H30Zm-8,6a4,4,0,1,0-4-4A3.9985,3.9985,0,0,0,22,19Zm-2-4a1.9971,1.9971,0,0,1,.0743-.5117l2.425,2.425A1.9772,1.9772,0,0,1,20,15Zm4,0a1.9971,1.9971,0,0,1-.0743.5117l-2.4374-2.4374A1.9747,1.9747,0,0,1,24,15Zm-8,0a4,4,0,1,0-4,4A3.9984,3.9984,0,0,0,16,15Zm-2,0a1.9971,1.9971,0,0,1-.0743.5117l-2.4374-2.4374A1.9747,1.9747,0,0,1,14,15Zm-4,0a1.9971,1.9971,0,0,1,.0743-.5117l2.425,2.425A1.9772,1.9772,0,0,1,10,15Zm56,4a4,4,0,1,0-4-4A3.9985,3.9985,0,0,0,66,19Zm-2-4a1.9971,1.9971,0,0,1,.0743-.5117l2.425,2.425A1.9772,1.9772,0,0,1,64,15Zm4,0a1.9971,1.9971,0,0,1-.0743.5117l-2.4374-2.4374A1.9747,1.9747,0,0,1,68,15Zm8,4a4,4,0,1,0-4-4A3.9985,3.9985,0,0,0,76,19Zm-2-4a1.9971,1.9971,0,0,1,.0743-.5117l2.425,2.425A1.9772,1.9772,0,0,1,74,15Zm4,0a1.9971,1.9971,0,0,1-.0743.5117l-2.4374-2.4374A1.9747,1.9747,0,0,1,78,15ZM21,30V26a1,1,0,0,1,2,0v1.002H65V26a1,1,0,0,1,2,0v1.9971l.001.0049L67,28.0068V30a1,1,0,0,1-2,0v-.998H23V30a1,1,0,0,1-2,0ZM53,71.998a1,1,0,0,1-1,1H36.002a1,1,0,1,1,0-2H52A1,1,0,0,1,53,71.998ZM32,61H56a5.0059,5.0059,0,0,0,5-5,1,1,0,0,0-1-1H56a12.0066,12.0066,0,0,0-7.01-10.9c.0006-.0361.01-.0638.01-.1a5,5,0,0,0-10,0c0,.0367.0093.0644.01.1A12.0066,12.0066,0,0,0,32,55H28a1,1,0,0,0-1,1A5.0059,5.0059,0,0,0,32,61Zm9.0674-17.6353a3.0008,3.0008,0,0,1,5.8652,0c-.0607-.0154-.1236-.02-.1846-.0347-.3233-.0762-.6517-.1362-.9845-.1855-.13-.02-.26-.0448-.3908-.06a11.1658,11.1658,0,0,0-2.7454,0c-.1313.015-.26.04-.3908.06-.3328.0493-.6612.1093-.9845.1855C41.191,43.3444,41.1281,43.3493,41.0674,43.3647Zm-.4263,2.2281c.1879-.0675.3765-.1329.5678-.1887.1146-.0334.2318-.06.348-.09.19-.0479.3793-.0961.5712-.1326.116-.022.2348-.0358.3521-.0538.1968-.03.3933-.0627.5914-.0811.1078-.01.2181-.01.3269-.0165a10.0591,10.0591,0,0,1,1.203,0c.1088.0065.2191.0065.3269.0165.1981.0184.3946.0509.5914.0811.1173.018.2361.0318.3521.0538.1919.0365.3815.0847.5712.1326.1162.0293.2334.0562.348.09.1914.0558.38.1213.5682.1889A10.008,10.008,0,0,1,54,55H34A10.0082,10.0082,0,0,1,40.6411,45.5928ZM33,57H58.8291A3.0062,3.0062,0,0,1,56,59H32a3.0062,3.0062,0,0,1-2.8291-2Z"></path></g></svg>