<svg height='300px' width='300px'  fill="#000000" xmlns="http://www.w3.org/2000/svg" viewBox="0 0 32 32" x="0px" y="0px"><title>Icon</title><g data-name="Layer 2"><path d="M29.07,2.93H2.93A.93.93,0,0,0,2,3.86V8.53a.93.93,0,0,0,.93.93h.84L2,28.05a.93.93,0,0,0,.93,1h7.46a.93.93,0,0,0,.93-.84l.1-1h9.17l.1,1a.93.93,0,0,0,.93.84h7.46a.93.93,0,0,0,.93-1L28.23,9.46h.84A.93.93,0,0,0,30,8.53V3.86A.93.93,0,0,0,29.07,2.93ZM3.87,4.79H28.13v2.8H3.87ZM19.61,16.93H16.94V9.46h2Zm-6.5-7.47h2v7.47H12.39Zm-7.46,0H7.51L5.82,27.21H4Zm2,17.74L9.39,9.46h1.85L9.54,27.21Zm4.52-8.41h2.86v6.54H11.59Zm4.72,6.54V18.79h2.84l.62,6.54ZM20.77,9.46h1.85L24.3,27.21H22.46Zm5.41,17.74L24.49,9.46h1.86L28,27.21Z"></path></g></svg>