<svg height='300px' width='300px'  fill="#000000" xmlns="http://www.w3.org/2000/svg" data-name="Kitchen Objects" viewBox="0 0 60 60" x="0px" y="0px"><title>Kitchen Objects - 022 - Fridge Freezer</title><path d="M19,55h5a0,0,0,0,1,0,0v2a2,2,0,0,1-2,2H21a2,2,0,0,1-2-2V55A0,0,0,0,1,19,55Z" fill="none" stroke="#000000" stroke-linecap="round" stroke-linejoin="round" stroke-width="2"></path><path d="M36,55h5a0,0,0,0,1,0,0v2a2,2,0,0,1-2,2H38a2,2,0,0,1-2-2V55A0,0,0,0,1,36,55Z" fill="none" stroke="#000000" stroke-linecap="round" stroke-linejoin="round" stroke-width="2"></path><line x1="45" y1="21" x2="15" y2="21" fill="none" stroke="#000000" stroke-linecap="round" stroke-linejoin="round" stroke-width="2"></line><line x1="19" y1="25" x2="19" y2="31" fill="none" stroke="#000000" stroke-linecap="round" stroke-linejoin="round" stroke-width="2"></line><line x1="19" y1="11" x2="19" y2="17" fill="none" stroke="#000000" stroke-linecap="round" stroke-linejoin="round" stroke-width="2"></line><rect x="15" y="1" width="30" height="54" rx="3" ry="3" fill="none" stroke="#000000" stroke-linecap="round" stroke-linejoin="round" stroke-width="2"></rect><line x1="20" y1="49" x2="20" y2="51" fill="none" stroke="#000000" stroke-linecap="round" stroke-linejoin="round" stroke-width="2"></line><line x1="24" y1="49" x2="24" y2="51" fill="none" stroke="#000000" stroke-linecap="round" stroke-linejoin="round" stroke-width="2"></line><line x1="28" y1="49" x2="28" y2="51" fill="none" stroke="#000000" stroke-linecap="round" stroke-linejoin="round" stroke-width="2"></line><line x1="32" y1="49" x2="32" y2="51" fill="none" stroke="#000000" stroke-linecap="round" stroke-linejoin="round" stroke-width="2"></line><line x1="36" y1="49" x2="36" y2="51" fill="none" stroke="#000000" stroke-linecap="round" stroke-linejoin="round" stroke-width="2"></line><line x1="40" y1="49" x2="40" y2="51" fill="none" stroke="#000000" stroke-linecap="round" stroke-linejoin="round" stroke-width="2"></line></svg>